/* XPM */
static const char *const app_icon_xpm[] = {
/* columns rows colors chars-per-pixel */
"32 32 175 2 ",
"   c #5F1D7C",
".  c #BF1919",
"X  c #BF2020",
"o  c #C90202",
"O  c #D00C0C",
"+  c #D00707",
"@  c #D01313",
"#  c #D01A1A",
"$  c #CB1B1B",
"%  c #FD0D0D",
"&  c #E71818",
"*  c #FF1414",
"=  c #FF1C1C",
"-  c #E30C0C",
";  c #C83333",
":  c #C52929",
">  c #E72828",
",  c #FF2323",
"<  c #FF2B2B",
"1  c #E73333",
"2  c #FF3535",
"3  c #FF3B3B",
"4  c #9A3776",
"5  c #B0457F",
"6  c #C84040",
"7  c #C85B5B",
"8  c #FF4343",
"9  c #FF4B4B",
"0  c #FF5353",
"q  c #FF5B5B",
"w  c #E75F70",
"e  c #C56B6B",
"r  c #C57575",
"t  c #FF6464",
"y  c #FF6E6E",
"u  c #FF7575",
"i  c #FF7E7E",
"p  c #B7B704",
"a  c #B7B70C",
"s  c #BDBD08",
"d  c #B7B714",
"f  c #BFBF13",
"g  c #BCBC1E",
"h  c #BFBF22",
"j  c #C7C703",
"k  c #E9E90C",
"l  c #ECEC14",
"z  c #EEEE1B",
"x  c #C8C837",
"c  c #D6D639",
"v  c #DADA2C",
"b  c #EEEE24",
"n  c #EEEE2C",
"m  c #EEEE33",
"M  c #EFEF3C",
"N  c #BFBF56",
"B  c #BFBF5D",
"V  c #878766",
"C  c #BFBF64",
"Z  c #BFBF68",
"A  c #B1B173",
"S  c #C5C544",
"D  c #D6D65A",
"F  c #DADA48",
"G  c #EFEF43",
"H  c #EFEF4C",
"J  c #F1F14B",
"K  c #F4F455",
"L  c #F5F55C",
"P  c #FDFD6E",
"I  c #FCFC64",
"U  c #E7E77A",
"Y  c #FFFF76",
"T  c #FFFF7C",
"R  c #F4F478",
"E  c #5F5F9C",
"W  c #7C498C",
"Q  c #6969B2",
"!  c #7070B6",
"~  c #0C0CDF",
"^  c #1212DF",
"/  c #1B1BDF",
"(  c #2A25C5",
")  c #2222DD",
"_  c #3333D7",
"`  c #3B3BD8",
"'  c #1D1DFF",
"]  c #2424FF",
"[  c #2C2CFF",
"{  c #3333FF",
"}  c #3A3AFF",
"|  c #5151C1",
" . c #4747D7",
".. c #5656D6",
"X. c #4949C2",
"o. c #6666CC",
"O. c #7272C2",
"+. c #6C6CD4",
"@. c #7373D0",
"#. c #7B7BD0",
"$. c #7878D8",
"%. c #4343FE",
"&. c #4B4BFE",
"*. c #4B4BF5",
"=. c #5454FF",
"-. c #5959FF",
";. c #6565FF",
":. c #6B6BFF",
">. c #7373FF",
",. c #7C7CFF",
"<. c #B16098",
"1. c #B47094",
"2. c #93938E",
"3. c #ABAB8A",
"4. c #8282B4",
"5. c #DF8D8D",
"6. c #DD9C9C",
"7. c #DF9494",
"8. c #FF8484",
"9. c #FF8B8B",
"0. c #FF9494",
"q. c #FF9C9C",
"w. c #F3929A",
"e. c #CE89AC",
"r. c #FFA5A5",
"t. c #FFACAC",
"y. c #FFB3B3",
"u. c #FFBBBB",
"i. c #F1BEBE",
"p. c #DCDC98",
"a. c #F4F480",
"s. c #FEFE83",
"d. c #F4F48B",
"f. c #FFFF8B",
"g. c #E7E79A",
"h. c #FFFF93",
"j. c #F6F69B",
"k. c #FFFF9D",
"l. c #E7E78A",
"z. c #F7F7A4",
"x. c #FFFFA3",
"c. c #FFFFAA",
"v. c #F6F6AB",
"b. c #F6F6B4",
"n. c #FFFFB5",
"m. c #FFFFBB",
"M. c #F6F6BE",
"N. c #E4E4AA",
"B. c #8686CE",
"V. c #8484D0",
"C. c #8888D6",
"Z. c #8686FF",
"A. c #8C8CFF",
"S. c #8484F2",
"D. c #9292FF",
"F. c #9A9AFF",
"G. c #A4A4FF",
"H. c #ACACFF",
"J. c #B3B3FF",
"K. c #BABAFF",
"L. c #FFC2C2",
"P. c #FFCACA",
"I. c #FFD3D3",
"U. c #FFDDDD",
"Y. c #FFFFC3",
"T. c #FFFFCC",
"R. c #F5F5C3",
"E. c #FFFFD5",
"W. c #FFFFDE",
"Q. c #C2C2FF",
"!. c #CACAFF",
"~. c #C1C1F2",
"^. c #D4D4FF",
"/. c #DADAFF",
"(. c None",
/* pixels */
"(.(.(.(.(.(.(.(.(.(.(.(.(.(.(.(.(.(.(.(.(.(.(.(.(.(.(.(.(.(.(.(.",
"(.(.(.(.(.(.(.(.(.(.(.(.(.(.(.(.(.(.(.(.(.(.(.(.(.(.(.(.(.(.(.(.",
"(.(.(.(.(.(.(.(.(.(.(.(.(.(.(.(.(.(.(.(.(.(.(.(.(.(.(.(.(.(.(.(.",
"(.(.(.(.(.(.(.(.(.(.(.(.(.(.(.(.(.(.(.(.(.(.(.(.(.(.(.(.(.(.(.(.",
"(.(.(.(.(.(.(.(.(.(.(.(.(.(.(.(.(.(.(.(.(.(.(.(.(.(.(.(.(.(.(.(.",
"(.(.(.(.(.(.(.(.(.(.O.B.V.V.#.#.@.@.@.o.| (.(.(.(.(.(.(.(.(.(.(.",
"(.(.(.(.(.(.(.(.(.O.~.^.!.Q.K.K.J.G.F.F.S.X.(.(.(.(.(.(.(.(.(.(.",
"(.(.(.(.(.(.(.(.(.C././.K.K.H.G.G.F.D.A.Z...(.(.(.(.(.(.(.(.(.(.",
"(.(.(.(.(.(.(.(.(.C.^.^.J.G.G.F.D.A.Z.Z.,. .(.(.(.(.(.(.(.(.(.(.",
"(.(.(.(.(.(.(.(.(.$.!.!.H.F.D.A.Z.Z.>.:.:. .(.(.(.(.(.(.(.(.(.(.",
"(.(.(.(.(.(.(.(.(.$.Q.Q.F.A.Z.,.>.;.=.&.&._ (.(.(.(.(.(.(.(.(.(.",
"(.(.(.(.(.(.(.(.(.+.K.K.D.,.,.>.-.&.%.*.4.2.A Z C C B B N N (.(.",
"(.(.(.(.(.(.(.(.(...J.J.Z.>.;.&.%.%.} 3.N.R.M.b.b.v.z.j.j.d.D (.",
"(.(.(.(.(.(.(.(.W  .F.G.>.-.&.%.} } o.p.W.E.Y.n.n.c.x.k.h.h.d.S ",
"(.r 6.6.6.7.5.5.1.` A.D.-.%.} } { { ! g.W.E.n.c.x.k.h.h.f.s.T S ",
"e i.U.P.L.u.y.t.e._ Z.A.&.{ { [ [ ] Q g.E.Y.c.k.k.f.f.s.T Y Y x ",
"r I.U.P.y.t.r.q.9.( *.;.} { [ ] ' ' Q l.T.m.k.h.f.s.T P I K K x ",
"e P.I.u.r.q.q.0.9.<.( / / / ^ ^ ^ ~ E U T.n.f.s.T Y L H H G M h ",
"e u.P.t.q.0.9.8.i u w <.4   (.(.(.(.V U Y.c.s.Y P K H G G M m g ",
"7 y.P.r.9.8.i u q 9 9 8 1 (.(.(.(.(.(.D n.x.Y I H H M M m m n f ",
"7 t.L.0.i u y 0 9 8 8 3 > (.(.(.(.(.(.F z.d.H H M M m m n b b j ",
"6 q.u.9.u t 9 9 8 3 2 2 > (.(.(.(.(.(.c z.a.H M m m n n b z z f ",
"; i t.u 0 8 8 3 2 2 < < & (.(.(.(.(.(.c R R M m n n b z l l l p ",
"; u q.t 8 3 2 2 < < , = & (.(.(.(.(.(.g v m n b b z l l k k j (.",
": t q.q 2 2 < < , = = * - (.(.(.(.(.(.(.d d d a a p a p p p (.(.",
"X 1 0 3 < < , = = * % % o (.(.(.(.(.(.(.(.(.(.(.(.(.(.(.(.(.(.(.",
"(.. $ # @ @ @ O O + o o (.(.(.(.(.(.(.(.(.(.(.(.(.(.(.(.(.(.(.(.",
"(.(.(.(.(.(.(.(.(.(.(.(.(.(.(.(.(.(.(.(.(.(.(.(.(.(.(.(.(.(.(.(.",
"(.(.(.(.(.(.(.(.(.(.(.(.(.(.(.(.(.(.(.(.(.(.(.(.(.(.(.(.(.(.(.(.",
"(.(.(.(.(.(.(.(.(.(.(.(.(.(.(.(.(.(.(.(.(.(.(.(.(.(.(.(.(.(.(.(.",
"(.(.(.(.(.(.(.(.(.(.(.(.(.(.(.(.(.(.(.(.(.(.(.(.(.(.(.(.(.(.(.(.",
"(.(.(.(.(.(.(.(.(.(.(.(.(.(.(.(.(.(.(.(.(.(.(.(.(.(.(.(.(.(.(.(."
};
